<?xml version="1.0" encoding="utf-8"?>
<!-- Generator: Adobe Illustrator 27.5.0, SVG Export Plug-In . SVG Version: 6.00 Build 0)  -->
<svg version="1.1" xmlns="http://www.w3.org/2000/svg" xmlns:xlink="http://www.w3.org/1999/xlink" x="0px" y="0px"
	 viewBox="0 0 500 500" style="enable-background:new 0 0 500 500;" xml:space="preserve">
<g id="BACKGROUND">
	<g>
		<rect style="fill:#F2F2F0;" width="500" height="500"/>
	</g>
</g>
<g id="OBJECTS">
	<g>
		<g>
			<g>
				<g>
					<g>
						<g>
							<path style="fill:#E8DBCB;" d="M250.827,136.548c-14.782-8.227-31.147-13.278-48.011-14.627
								c-19.696-1.576-43.213,1.59-58.494,20.555c-30.563,37.93,43.808,87.467-32.969,125.307
								c-54.219,26.722-26.485,99.011,30.914,89.73c65.315-10.561,20.915-47.485,165.121-25.51
								C377.315,342.66,438.918,241.234,250.827,136.548z"/>
						</g>
					</g>
				</g>
			</g>
			<g>
				<path style="fill:#E8DBCB;" d="M397.019,428.105c0,0,43.29,5.575,38.607,21.029c-4.683,15.454-88.585,16.008-123.395,10.325
					c-34.81-5.683-0.812-29.923-37.448-26.535c-36.636,3.387-90.877-2.727-120.08-4.819c-44.997-3.223-42.326-30.898,2.302-38.741
					c44.629-7.843,171.433-4.398,186.465,7.676c15.032,12.074-32.151,18.305-9.892,25.107
					C355.839,428.949,397.019,428.105,397.019,428.105z"/>
			</g>
			<g>
				<g>
					<g>
						<g>
							<path style="fill:#E8DBCB;" d="M119.903,228.294c0,0-15.96,9.749-13.001,19.941c2.959,10.192,22.601-1.527,25.048-11.053
								C134.397,227.656,125.07,224.438,119.903,228.294z"/>
						</g>
					</g>
				</g>
			</g>
			<g>
				<g>
					<g>
						<g>
							<path style="fill:#E8DBCB;" d="M133.751,204.414c4.709,0.889,7.282,5.977,5.454,10.406c-1.44,3.487-4.056,6.937-8.72,6.288
								c-9.024-1.256-4.969-10.642-2.139-14.794C129.547,204.554,132.291,204.139,133.751,204.414z"/>
						</g>
					</g>
				</g>
			</g>
			<g>
				<g>
					<g>
						<g>
							<path style="fill:#E8DBCB;" d="M359.95,342.558c0,0,16.476-8.85,14.086-19.19c-2.39-10.34-22.651,0.272-25.622,9.648
								C345.443,342.391,354.578,346.122,359.95,342.558z"/>
						</g>
					</g>
				</g>
			</g>
			<g>
				<g>
					<g>
						<g>
							<path style="fill:#E8DBCB;" d="M333.392,171.134c2.8-3.889,1.16-9.35-3.217-11.299c-3.446-1.535-7.719-2.233-10.652,1.451
								c-5.675,7.128,3.731,11.136,8.643,12.196C330.248,173.93,332.523,172.34,333.392,171.134z"/>
						</g>
					</g>
				</g>
			</g>
		</g>
	</g>
	<g>
		<g>
			<g>
				<g>
					<g>
						<g>
							<g>
								<g>
									<path style="fill:#FD9680;" d="M341.434,252.487c-0.02,5.576-3.049,10.44-7.544,13.057
										c-2.254,1.312-4.876,2.059-7.671,2.048c-14.06-0.048-31.841-4.502-52.854-13.237c-15.061-6.26-26.318-12.476-26.79-12.738
										c-7.322-4.06-9.967-13.287-5.909-20.611c4.058-7.32,13.281-9.967,20.603-5.913c5.362,2.965,15.903,8.218,27.688,12.865
										c0.426,0.168,0.854,0.335,1.281,0.501c6.45,2.5,13.227,4.791,19.699,6.409c5.871,1.469,11.489,2.385,16.389,2.404
										C334.7,237.301,341.462,244.114,341.434,252.487z"/>
								</g>
							</g>
						</g>
					</g>
					<g>
						<g>
							<g>
								<g>
									<g>
										<g>
											<g>
												<g>
													<g>
														<g>
															<g>
																<g>
																	<g>
																		<g>
																			<path style="fill:#D1625C;" d="M309.938,234.869c-0.357,1.066-0.662,1.984-0.852,2.642
																				c-0.789,2.72-7.945,19.549-9.273,17.979c-1.302-1.542,1.35-9.499,1.445-9.79
																				c-0.186,0.367-6.389,12.581-8.435,11.614c-1.927-0.908,3.82-12.292,4.008-12.665
																				c-0.254,0.414-9.106,14.772-10.888,12.258c-0.886-1.253,6.662-14.445,6.884-14.835
																				c-1.828,2.311-9.237,11.535-9.953,9.309c-0.708-2.214,10.419-19.351,10.587-19.612
																				c-0.063,0.026-1.342,0.585-2.468,1.996c-1.152,1.445-6.633,8.597-7.215,5.721c-0.44-2.18,2.72-7.729,5.18-11.527
																				c0.426,0.168,0.854,0.335,1.281,0.501C296.689,230.96,303.466,233.25,309.938,234.869z"/>
																		</g>
																	</g>
																</g>
															</g>
														</g>
													</g>
												</g>
											</g>
										</g>
									</g>
								</g>
							</g>
						</g>
					</g>
					<g>
						<g>
							<path style="fill:#2F241C;" d="M241.134,201.617c-4.475-1.177-10.001,11.623-10.131,16.248
								c-0.157,5.597,2.048,13.198,9.596,23.224c12.544,16.659,29.217,17.512,29.217,17.512c4.44-9.287,9.805-21.928,14.801-34.844
								C284.618,223.756,260.282,206.654,241.134,201.617z"/>
						</g>
					</g>
					<g>
						<g>
							<g>
								<g>
									<path style="fill:#FD9680;" d="M367.574,199.661c-0.343,5.582-1.09,11.21-2.309,16.827c-0.19,0.91-0.4,1.816-0.624,2.722
										c-0.468,1.895-1.003,3.786-1.574,5.675c-0.874,2.783-1.869,5.55-3.001,8.288c-1.423,3.382-3.047,6.722-4.914,9.975
										c-1.148,2.002-2.391,3.972-3.735,5.901c-1.76,2.537-3.687,4.999-5.84,7.382c-1.074,1.197-2.206,2.367-3.439,3.534
										c-0.613,0.581-1.259,1.164-1.943,1.754l-0.537,0.448l-0.271,0.224l-0.295,0.234l-0.297,0.234l-0.331,0.252
										c-0.121,0.089-0.206,0.155-0.365,0.268c-0.165,0.115-0.214,0.159-0.583,0.4c-7.029,4.379-16.276,2.232-20.655-4.797
										c-4.349-6.979-2.262-16.145,4.65-20.558c-0.047,0.036-0.016,0.022-0.038,0.042c-0.026,0.024,0.018,0,0.03,0
										c0.02-0.008,0.03-0.006,0.06-0.022l0.091-0.044l0.093-0.044l0.111-0.063l0.226-0.127c0.321-0.192,0.666-0.408,1.023-0.652
										c0.71-0.478,1.453-1.035,2.186-1.635c1.473-1.191,2.93-2.547,4.319-4.016c1.389-1.471,2.73-3.041,3.984-4.714
										c0.906-1.205,1.774-2.458,2.605-3.748c0.323-0.499,0.64-1.003,0.951-1.512c0.147-0.244,0.291-0.488,0.434-0.734
										c0.398-0.682,0.785-1.372,1.164-2.071c0.515-0.954,1.013-1.925,1.493-2.912c0.127-0.27,0.252-0.541,0.377-0.811
										c0.283-0.607,0.559-1.217,0.827-1.834c0-0.002,0-0.002,0-0.002c0.497-1.132,0.967-2.28,1.399-3.453
										c0.089-0.234,0.176-0.47,0.262-0.706c1.457-3.965,2.638-8.111,3.538-12.379l0.034-0.157
										c1.205-5.711,6.813-9.364,12.526-8.159C364.404,189.769,367.895,194.513,367.574,199.661z"/>
								</g>
							</g>
						</g>
					</g>
					<g>
						<g>
							<g>
								<g>
									<g>
										<g>
											<g>
												<g>
													<g>
														<g>
															<g>
																<g>
																	<g>
																		<g>
																			<path style="fill:#D1625C;" d="M364.642,219.21c-0.468,1.895-1.003,3.786-1.574,5.675
																				c-0.874,2.783-1.869,5.55-3.001,8.288c-1.423,3.382-3.047,6.722-4.914,9.975c-2.652-2.294-5.34-4.888-6.74-6.07
																				c-1.663-1.403-9.063-9.239-12.211-13.677c0.323-0.499,0.64-1.003,0.951-1.512
																				c0.147-0.244,0.291-0.488,0.434-0.734c2.684,1.542,6.111,4.674,6.27,4.819c-0.141-0.176-2.898-3.568-5.106-6.89
																				c0.515-0.954,1.013-1.925,1.493-2.912c0.127-0.27,0.252-0.541,0.377-0.811c2.858,2.73,5.996,6.575,6.161,6.777
																				c-0.145-0.214-3.104-4.537-5.334-8.611c0-0.002,0-0.002,0-0.002c0.497-1.132,0.967-2.28,1.399-3.453
																				c0.089-0.234,0.176-0.47,0.262-0.706c3.322,3.776,7.691,9.737,7.889,10.006
																				c-1.449-2.769-7.188-13.913-4.724-13.646c2.468,0.268,14.429,18.7,14.429,18.7s0.032-1.512-0.87-3.251
																				c-0.902-1.738-5.467-10.127-2.432-9.451C359.248,212.135,362.198,215.729,364.642,219.21z"/>
																		</g>
																	</g>
																</g>
															</g>
														</g>
													</g>
												</g>
											</g>
										</g>
									</g>
								</g>
							</g>
						</g>
					</g>
					<g>
						<g>
							<g>
								<g>
									<g>
										<g>
											<g>
												<g>
													<path style="fill:#DE766B;" d="M324.237,253.735c-0.008,0.006-0.016,0.012-0.024,0.018
														c-0.232,0.16-0.551,0.102-0.711-0.131c-4.476-6.489-0.849-15.937-0.692-16.336c0.103-0.262,0.4-0.392,0.662-0.289
														c0.263,0.103,0.392,0.399,0.289,0.662c-0.036,0.093-3.583,9.345,0.583,15.382
														C324.497,253.266,324.449,253.57,324.237,253.735z"/>
												</g>
											</g>
										</g>
									</g>
								</g>
							</g>
						</g>
					</g>
					<g>
						<g>
							<g>
								<g>
									<g>
										<g>
											<g>
												<g>
													<path style="fill:#DE766B;" d="M317.764,244.522c-0.164,0.128-0.395,0.148-0.583,0.033
														c-0.24-0.148-0.315-0.463-0.168-0.703c0.085-0.139,2.122-3.423,5.721-6.088c0.227-0.168,0.547-0.12,0.715,0.106
														c0.168,0.227,0.129,0.537-0.106,0.715c-3.435,2.544-5.44,5.77-5.459,5.803
														C317.852,244.441,317.811,244.486,317.764,244.522z"/>
												</g>
											</g>
										</g>
									</g>
								</g>
							</g>
						</g>
					</g>
					<g>
						<g>
							<g>
								<g>
									<g>
										<path style="fill:#FD9680;" d="M361.348,176.34c0,0-6.168-8.404-12.105-2.9c-5.936,5.504-4.014,17.552-4.014,17.552
											c2.558,8.808,10.852,12.356,10.852,12.356c5.191,2.29,10.458-1.182,13.042-3.347c1.033-0.87,1.635-1.528,1.635-1.528
											c2.598,2.564,12.377,0.93,10.615-6.742c-0.772-3.366-1.294-6.042-1.637-7.985c-0.726-4.106-3.383-7.682-7.221-9.313
											C369.495,173.148,365.636,172.994,361.348,176.34z"/>
									</g>
								</g>
							</g>
						</g>
						<g>
							<g>
								<g>
									<g>
										<g>
											<g>
												<g>
													<g>
														<path style="fill:#DE766B;" d="M363.169,186.365c-4.197-0.797-10.882-9.058-11.709-10.098
															c-0.185-0.233-0.146-0.572,0.086-0.758c0.233-0.185,0.573-0.147,0.758,0.086c3.302,4.151,9.446,10.455,11.871,9.699
															c0.666-0.207,1.076-0.555,1.255-1.063c0.464-1.318-0.682-3.457-1.163-4.17c-0.167-0.247-0.102-0.582,0.146-0.748
															c0.247-0.167,0.583-0.102,0.749,0.145c0.083,0.123,2.022,3.036,1.286,5.131c-0.295,0.84-0.952,1.424-1.952,1.735
															C364.094,186.451,363.648,186.456,363.169,186.365z"/>
													</g>
												</g>
											</g>
										</g>
									</g>
								</g>
							</g>
							<g>
								<g>
									<g>
										<g>
											<g>
												<g>
													<g>
														<path style="fill:#DE766B;" d="M369.627,198.305c-0.181-0.034-0.339-0.16-0.406-0.346
															c-1.551-4.271-3.866-13.114-3.889-13.203c-0.076-0.288,0.097-0.583,0.385-0.658c0.289-0.076,0.583,0.098,0.658,0.385
															c0.023,0.088,2.327,8.884,3.86,13.109c0.102,0.279-0.043,0.589-0.323,0.691
															C369.817,198.316,369.72,198.323,369.627,198.305z"/>
													</g>
												</g>
											</g>
										</g>
									</g>
								</g>
							</g>
							<g>
								<g>
									<g>
										<g>
											<g>
												<g>
													<g>
														<path style="fill:#DE766B;" d="M353.168,190.735c-1.378-0.262-2.258-0.602-2.286-0.613
															c-0.277-0.11-0.412-0.423-0.301-0.701c0.109-0.276,0.421-0.413,0.7-0.302c0.359,0.143,8.837,3.397,14.216-3.594
															c0.182-0.236,0.52-0.279,0.756-0.099c0.236,0.182,0.28,0.52,0.099,0.756
															C362.241,191.525,356.366,191.342,353.168,190.735z"/>
													</g>
												</g>
											</g>
										</g>
									</g>
								</g>
							</g>
							<g>
								<g>
									<g>
										<g>
											<g>
												<g>
													<g>
														<path style="fill:#DE766B;" d="M367.731,184.688c-1.223-0.232-1.877-0.716-1.942-0.765
															c-0.236-0.182-0.281-0.521-0.099-0.757c0.181-0.235,0.518-0.28,0.753-0.101c0.053,0.039,3.544,2.49,10.207-2.418
															c0.24-0.177,0.577-0.125,0.754,0.114c0.177,0.24,0.126,0.577-0.114,0.754
															C372.817,184.809,369.606,185.044,367.731,184.688z"/>
													</g>
												</g>
											</g>
										</g>
									</g>
								</g>
							</g>
							<g>
								<g>
									<g>
										<g>
											<g>
												<g>
													<g>
														<path style="fill:#DE766B;" d="M370.072,193.071c-1.548-0.294-2.364-1.027-2.435-1.094
															c-0.218-0.203-0.23-0.544-0.027-0.762c0.203-0.218,0.542-0.229,0.76-0.029c0.143,0.129,3.42,2.958,10.067-1.939
															c0.24-0.177,0.577-0.125,0.754,0.114c0.177,0.24,0.126,0.578-0.114,0.754
															C374.984,193.131,371.975,193.432,370.072,193.071z"/>
													</g>
												</g>
											</g>
										</g>
									</g>
								</g>
							</g>
							<g>
								<g>
									<g>
										<g>
											<g>
												<g>
													<g>
														<path style="fill:#DE766B;" d="M368.471,189.092c-1.223-0.232-1.877-0.716-1.942-0.765
															c-0.236-0.182-0.28-0.521-0.099-0.757c0.182-0.235,0.517-0.28,0.754-0.101c0.051,0.038,3.539,2.493,10.207-2.418
															c0.24-0.177,0.577-0.125,0.754,0.114c0.177,0.24,0.125,0.577-0.114,0.754
															C373.558,189.213,370.346,189.448,368.471,189.092z"/>
													</g>
												</g>
											</g>
										</g>
									</g>
								</g>
							</g>
							<g>
								<g>
									<g>
										<g>
											<g>
												<g>
													<g>
														<path style="fill:#DE766B;" d="M371.329,196.775c-1.4-0.266-2.28-0.753-2.362-0.8
															c-0.259-0.147-0.349-0.477-0.202-0.736c0.147-0.259,0.476-0.35,0.734-0.202c0.173,0.097,4.258,2.323,9.11-0.947
															c0.246-0.166,0.582-0.102,0.748,0.146c0.167,0.247,0.101,0.583-0.146,0.749
															C376.089,197.09,373.23,197.136,371.329,196.775z"/>
													</g>
												</g>
											</g>
										</g>
									</g>
								</g>
							</g>
						</g>
						<g>
							<g>
								<g>
									<g>
										<g>
											<g>
												<path style="fill:#1E1314;" d="M367.344,177.139l-17.24-87.056c-0.167-0.844-1.687-1.26-3.394-0.93
													c-1.706,0.33-2.955,1.282-2.788,2.126l17.239,87.046C363.341,179.213,365.39,178.681,367.344,177.139z"/>
											</g>
										</g>
									</g>
								</g>
							</g>
						</g>
						<g>
							<g>
								<g>
									<path style="fill:#E8DBCB;" d="M287.237,147.37l134.914-25.882c2.179-0.418,3.607-2.524,3.189-4.703l-15.76-82.148
										c-0.418-2.18-2.524-3.607-4.703-3.189L269.963,57.329c-2.18,0.418-3.607,2.524-3.189,4.703l15.759,82.148
										C282.952,146.36,285.057,147.788,287.237,147.37z"/>
								</g>
							</g>
						</g>
						<g>
							<g>
								<g>
									<g>
										<path style="fill:#FF6449;" d="M314.692,94.929c-2.553-18.34,10.291-35.338,28.632-37.891
											c18.34-2.553,35.338,10.291,37.891,28.632c2.553,18.34-10.291,35.338-28.632,37.891
											C334.242,126.113,317.245,113.269,314.692,94.929z M321.906,93.925c1.999,14.363,15.31,24.421,29.673,22.422
											c14.363-1.999,24.421-15.31,22.422-29.673c-1.999-14.363-15.31-24.421-29.673-22.422
											C329.965,66.251,319.907,79.562,321.906,93.925z"/>
									</g>
								</g>
							</g>
							<g>
								<g>
									<g>
										<path style="fill:#FF6449;" d="M372.04,111.728c0.923-0.129,1.797-0.609,2.404-1.412c1.213-1.605,0.895-3.888-0.71-5.101
											l-47.169-35.642c-1.604-1.213-3.888-0.895-5.101,0.71c-1.213,1.605-0.895,3.888,0.71,5.101l47.169,35.643
											C370.144,111.632,371.117,111.856,372.04,111.728z"/>
									</g>
								</g>
							</g>
						</g>
					</g>
				</g>
			</g>
			<g>
				<g>
					<g>
						<g>
							<g>
								<g>
									<polygon style="fill:#FD9680;" points="349.606,396.837 354.22,415.534 373.964,415.036 372.494,392.898 									"/>
								</g>
							</g>
						</g>
					</g>
				</g>
				<g>
					<g>
						<g>
							<g>
								<g>
									<g>
										<g>
											<path style="fill:#2F241C;" d="M423.475,444.992l-74.679,1.884c-0.581-0.995-0.919-2.419-1.087-4.122
												c-0.626-6.305,1.133-16.437,1.96-22.819c0.101-0.746,0.186-1.441,0.25-2.07c0.111-1.066,0.173-1.952,0.157-2.601
												c-0.131-5.187,3.057-4.374,3.057-4.374c7.744,7.219,17.447-4.149,22.536-0.63c0,0,2.19,1.488,8.255,6.673
												c6.06,5.185,16.235,8.451,24.909,11.826c11.199,4.352,14.458,8.9,15.152,12.072
												C424.532,443.342,423.475,444.992,423.475,444.992z"/>
										</g>
									</g>
								</g>
							</g>
						</g>
					</g>
					<g>
						<g>
							<g>
								<g>
									<g>
										<g>
											<path style="fill:#64605A;" d="M423.475,444.992l-74.679,1.884c-0.581-0.995-0.919-2.419-1.087-4.122l76.275-1.924
												C424.532,443.342,423.475,444.992,423.475,444.992z"/>
										</g>
									</g>
								</g>
							</g>
						</g>
					</g>
					<g>
						<g>
							<g>
								<g>
									<g>
										<g>
											<g>
												<path style="fill:#64605A;" d="M356.416,446.684l-2.218,0.056c2.15-2.585,4.124-6.518,3.712-12.059
													c-0.546-7.37-5.099-12.232-8.241-14.746c0.101-0.746,0.186-1.441,0.25-2.07c3.38,2.45,9.108,7.857,9.766,16.683
													C360.077,439.84,358.439,443.835,356.416,446.684z"/>
											</g>
										</g>
									</g>
								</g>
							</g>
						</g>
					</g>
					<g>
						<g>
							<g>
								<g>
									<g>
										<g>
											<path style="fill:#F2F2F0;" d="M382.768,421.369c-0.552,0.014-1.064-0.348-1.217-0.904
												c-0.181-0.655,0.205-1.333,0.86-1.513l4.636-1.276c0.655-0.182,1.333,0.204,1.513,0.86
												c0.181,0.655-0.205,1.333-0.86,1.514l-4.636,1.276C382.966,421.352,382.866,421.367,382.768,421.369z"/>
										</g>
									</g>
								</g>
							</g>
						</g>
					</g>
					<g>
						<g>
							<g>
								<g>
									<g>
										<g>
											<path style="fill:#F2F2F0;" d="M378.034,417.602c-0.552,0.014-1.064-0.348-1.217-0.904
												c-0.181-0.655,0.205-1.333,0.86-1.513l4.636-1.276c0.655-0.182,1.333,0.204,1.514,0.86
												c0.18,0.655-0.205,1.333-0.861,1.513l-4.636,1.276C378.232,417.585,378.132,417.6,378.034,417.602z"/>
										</g>
									</g>
								</g>
							</g>
						</g>
					</g>
					<g>
						<g>
							<g>
								<g>
									<g>
										<g>
											<path style="fill:#F2F2F0;" d="M387.501,423.963c-0.552,0.014-1.064-0.348-1.217-0.904
												c-0.181-0.655,0.205-1.333,0.86-1.513l4.636-1.276c0.655-0.182,1.333,0.204,1.513,0.86
												c0.181,0.655-0.205,1.333-0.86,1.513l-4.636,1.276C387.699,423.946,387.6,423.961,387.501,423.963z"/>
										</g>
									</g>
								</g>
							</g>
						</g>
					</g>
					<g>
						<g>
							<g>
								<g>
									<g>
										<g>
											<path style="fill:#F2F2F0;" d="M392.232,426.452c-0.552,0.014-1.064-0.348-1.217-0.905
												c-0.181-0.655,0.204-1.333,0.86-1.513l4.636-1.276c0.656-0.182,1.333,0.205,1.514,0.86
												c0.181,0.655-0.205,1.333-0.86,1.513l-4.636,1.276C392.43,426.435,392.33,426.45,392.232,426.452z"/>
										</g>
									</g>
								</g>
							</g>
						</g>
					</g>
					<g>
						<g>
							<g>
								<g>
									<g>
										<g>
											<path style="fill:#F2F2F0;" d="M397.379,428.735c-0.552,0.014-1.064-0.348-1.217-0.904
												c-0.18-0.655,0.205-1.333,0.861-1.513l4.636-1.276c0.655-0.181,1.333,0.204,1.513,0.86
												c0.18,0.655-0.205,1.333-0.86,1.513l-4.636,1.276C397.577,428.718,397.478,428.732,397.379,428.735z"/>
										</g>
									</g>
								</g>
							</g>
						</g>
					</g>
					<g>
						<g>
							<g>
								<g>
									<g>
										<g>
											<path style="fill:#F2F2F0;" d="M402.948,430.651c-0.552,0.014-1.064-0.348-1.217-0.905
												c-0.181-0.655,0.205-1.333,0.86-1.513l4.636-1.276c0.656-0.181,1.333,0.204,1.514,0.86
												c0.18,0.655-0.205,1.333-0.86,1.513l-4.636,1.276C403.145,430.634,403.046,430.649,402.948,430.651z"/>
										</g>
									</g>
								</g>
							</g>
						</g>
					</g>
				</g>
			</g>
			<g>
				<g>
					<g>
						<path style="fill:#FD9680;" d="M285.771,282.422C285.771,282.422,285.772,282.423,285.771,282.422
							C285.771,282.423,285.771,282.422,285.771,282.422z"/>
					</g>
				</g>
			</g>
			<g>
				<g>
					<g>
						<path style="fill:#004B56;" d="M209.73,390.198c0,0,60.945-119.575,88.748-137.562c27.803-17.986,49.055,3.095,53.961,21.319
							c4.906,18.224,23.101,124.207,23.101,124.207l-28.617,4.491c-10.557-37.658-34.162-64.483-23.918-81.133
							c0,0-15.557,76.687-51.35,87.726C235.862,420.286,209.73,390.198,209.73,390.198z"/>
					</g>
				</g>
				<g>
					<g>
						<g>
							<path style="fill:#061F28;" d="M256.791,406.499c-8.783,0-17.5-2.942-24.077-5.924
								c-10.074-4.568-17.442-10.213-17.515-10.269c-0.335-0.258-0.396-0.738-0.139-1.072c0.258-0.335,0.738-0.396,1.072-0.139
								c0.072,0.056,7.322,5.608,17.242,10.101c9.089,4.116,22.347,8.164,33.903,4.073c12.558-4.446,26.437-23.884,40.135-56.212
								c10.399-24.542,17.077-48.045,17.143-48.28c0.105-0.371,0.47-0.607,0.851-0.548c0.381,0.058,0.659,0.391,0.649,0.776
								c-0.008,0.287-0.66,28.942,8.258,49.113c9.005,20.367,16.966,44.119,17.045,44.357c0.134,0.401-0.082,0.834-0.483,0.967
								c-0.401,0.134-0.834-0.082-0.967-0.483c-0.079-0.237-8.018-23.923-16.993-44.223c-6.766-15.301-8.109-35.343-8.352-44.634
								c-2.517,8.21-8.136,25.596-15.737,43.537c-6.136,14.483-12.346,26.495-18.458,35.702
								c-7.701,11.601-15.298,18.791-22.581,21.369C264.214,405.975,260.497,406.499,256.791,406.499z"/>
						</g>
					</g>
					<g>
						<g>
							<path style="fill:#061F28;" d="M345.21,394.442c-0.364,0-0.686-0.261-0.752-0.631c-0.073-0.416,0.204-0.813,0.62-0.886
								l28.239-4.995c0.416-0.075,0.812,0.204,0.886,0.62c0.073,0.416-0.204,0.813-0.62,0.886l-28.239,4.995
								C345.299,394.438,345.255,394.442,345.21,394.442z"/>
						</g>
					</g>
				</g>
			</g>
			<g>
				<g>
					<g>
						<g>
							<path style="fill:#2F241C;" d="M256.87,347.754c-20.269,7.402-70.475,68.084-79.315,50.494
								c-21.2-42.193-24.202-87.413-21.773-114.956c0.301-3.438,0.389-7.17,0.339-11.078c-0.079-5.756-0.455-11.906-0.887-18.1
								c-1.623-23.279-2.621-42.603,6.401-49.69c10.012-7.864,16.523-7.66,23.692-9.604c4.442-1.207,9.068-1.561,13.644-1.025
								l26.624,3.13c0,0,13.16,2.752,17.685,5.884c4.525,3.133,6.497,18.65,14.89,31.584c8.392,12.935,17.368,24.758,10.169,39.45
								c-6.263,12.78-5.238,7.975-5.484,28.642C262.551,327.805,290.823,335.352,256.87,347.754z"/>
						</g>
					</g>
				</g>
				<g>
					<path style="fill:#64605A;" d="M266.685,266.748c-0.142,0-0.285-0.037-0.416-0.115c-0.387-0.23-0.514-0.731-0.284-1.118
						c4.511-7.583,4.763-10.82-3.433-22.866c-5-7.349-9.975-19.59-10.184-20.108c-0.169-0.417,0.033-0.893,0.45-1.062
						c0.417-0.169,0.893,0.032,1.062,0.45c0.051,0.125,5.12,12.598,10.021,19.802c4.491,6.601,6.392,10.53,6.781,14.011
						c0.4,3.586-0.849,6.494-3.295,10.606C267.234,266.605,266.964,266.748,266.685,266.748z"/>
				</g>
				<g>
					<path style="fill:#64605A;" d="M213.461,294.568c-0.222,0-0.442-0.09-0.603-0.266c-0.303-0.333-0.279-0.849,0.054-1.152
						c7.954-7.243,19.278-12.272,27.378-15.214c8.754-3.18,15.742-4.68,15.811-4.695c0.441-0.094,0.873,0.188,0.967,0.628
						c0.094,0.441-0.188,0.874-0.628,0.967c-0.274,0.058-27.565,5.983-42.43,19.52C213.853,294.498,213.656,294.568,213.461,294.568
						z"/>
				</g>
				<g>
					<path style="fill:#64605A;" d="M223.142,222.19c-11.304,0-23.878-9.564-24.449-10.003c-0.357-0.275-0.424-0.786-0.149-1.143
						c0.275-0.357,0.787-0.424,1.144-0.15c0.145,0.112,14.677,11.161,25.886,9.491c3.54-0.528,6.407-2.299,8.521-5.265
						c0.261-0.367,0.771-0.452,1.137-0.191c0.367,0.261,0.452,0.771,0.19,1.137c-2.382,3.34-5.615,5.336-9.612,5.932
						C224.934,222.129,224.042,222.19,223.142,222.19z"/>
				</g>
				<g>
					<g>
						<g>
							<path style="fill:#64605A;" d="M205.352,236.795l2.043,16.809c0,0,25.338-1.793,42.121-1.468l-3.2-15.585
								C246.317,236.55,222.065,235.168,205.352,236.795z"/>
						</g>
					</g>
				</g>
				<g>
					<g>
						<g>
							<path style="fill:#64605A;" d="M187.131,401.297c-0.23-0.072-0.433-0.232-0.552-0.462
								c-17.658-33.898-23.02-72.027-24.408-98.046c-1.504-28.177,1.201-48.635,1.228-48.839c0.069-0.514,0.542-0.874,1.056-0.805
								c0.515,0.074,0.874,0.543,0.805,1.056c-0.027,0.202-2.71,20.519-1.212,48.529c1.382,25.821,6.701,63.65,24.196,97.236
								c0.24,0.46,0.061,1.027-0.399,1.266C187.616,401.353,187.36,401.368,187.131,401.297z"/>
						</g>
					</g>
				</g>
				<g>
					<g>
						<g>
							<path style="fill:#64605A;" d="M203.425,355.97c-0.113-0.035-0.22-0.092-0.317-0.172c-0.4-0.33-0.457-0.922-0.127-1.322
								c12.734-15.438,27.029-24.317,36.778-29.047c10.584-5.135,18.053-6.594,18.366-6.653c0.509-0.098,1.001,0.237,1.097,0.746
								c0.098,0.509-0.237,1.001-0.746,1.098c-0.075,0.014-7.588,1.487-17.962,6.529c-9.563,4.648-23.587,13.369-36.085,28.522
								C204.18,355.974,203.779,356.08,203.425,355.97z"/>
						</g>
					</g>
				</g>
				<g>
					<g>
						<g>
							<path style="fill:#64605A;" d="M208.853,325.714c-0.256-0.08-0.475-0.268-0.587-0.534c-0.2-0.479,0.026-1.029,0.504-1.228
								c0.857-0.358,21.18-8.742,38.68-6.872c0.515,0.056,0.889,0.518,0.834,1.033c-0.055,0.516-0.518,0.889-1.033,0.834
								c-17.026-1.821-37.551,6.651-37.757,6.737C209.283,325.772,209.056,325.777,208.853,325.714z"/>
						</g>
					</g>
				</g>
			</g>
			<g>
				<g>
					<g>
						<g>
							<g>
								<g>
									<path style="fill:#2F241C;" d="M243.191,118.296c-1.916,2.766-3.673,4.729-3.673,4.729l-11.246,10.979l-15.82,15.445
										c0,0-11.067,5.424-15.948,2.417c-3.01-1.856-3.064-5.637-2.659-8.262c0.251-1.621,0.672-2.8,0.672-2.8
										s-0.535,0.311-1.377,0.607c-2.091,0.736-6.074,1.381-8.501-3.064c-3.408-6.24,4.247-14.468,4.247-14.468
										s-7.996-2.562-9.773-8.619c-2.68-9.139,6.688-12.438,6.688-12.438s-4.7-5.445-2.912-10.215
										c2.501-6.669,10.731-2.306,10.731-2.306s-1.687-13.269,7.182-15.058c8.867-1.785,14.321,9.388,14.321,9.388
										s6.326-4.388,13.923-0.748c7.597,3.641,4.604,17.689,4.604,17.689s7.056-4.25,12.89,1.413
										C250.219,106.552,246.469,113.584,243.191,118.296z"/>
								</g>
							</g>
						</g>
					</g>
					<g>
						<g>
							<g>
								<g>
									<path style="fill:#FF6449;" d="M243.191,118.296c-1.916,2.766-3.673,4.729-3.673,4.729l-11.246,10.979
										c-14.167,8.481-25.3,9.244-29.711,9.355c-0.773,0.022-1.349,0.316-1.349,0.316s-1.167-3.41-0.449-7.642
										c1.256-7.404,4.211-15.617,15.703-21.352C224.742,108.551,238.944,116.128,243.191,118.296z"/>
								</g>
							</g>
						</g>
					</g>
				</g>
				<g>
					<g>
						<g>
							<g>
								<g>
									<path style="fill:#FD9680;" d="M232.308,185.681c-0.247,0.841-0.497,1.684-0.745,2.531
										c-1.154,3.907-2.309,7.907-3.098,12.225c-0.373,2.053-0.904,6.378-1.072,8.601c-10.981,12.967-23.726-2.502-27.868-11.501
										c-0.95-2.064-1.447-3.786-1.367-4.748c2.875-5.084,4.585-10.365,5.595-14.637c1.24-5.239,1.43-8.964,1.43-8.964
										L232.308,185.681z"/>
								</g>
							</g>
						</g>
					</g>
				</g>
				<g>
					<g>
						<g>
							<g>
								<g>
									<g>
										<g>
											<g>
												<g>
													<g>
														<g>
															<g>
																<g>
																	<g>
																		<path style="fill:#D1625C;" d="M216.048,193.506c-1.745,0.48-7.244-4.696-7.408-4.849
																			c0.216,0.273,7.819,9.912,6.267,11.208c-1.466,1.225-8.576-7.747-8.783-8.009c0.227,0.34,8.58,12.94,5.87,13.443
																			c-1.372,0.254-9.467-11.166-9.467-11.166c1.183,2.34,5.906,11.839,3.827,11.583
																			c-1.049-0.13-4.079-4.188-6.829-8.179c-0.95-2.064-1.447-3.786-1.367-4.748
																			c2.875-5.084,4.585-10.365,5.595-14.637c0.457,0.43,0.858,0.799,1.176,1.076
																			C206.843,180.891,217.823,193.017,216.048,193.506z"/>
																	</g>
																</g>
															</g>
														</g>
													</g>
												</g>
											</g>
										</g>
									</g>
								</g>
							</g>
						</g>
					</g>
				</g>
				<g>
					<g>
						<g>
							<g>
								<g>
									<g>
										<g>
											<g>
												<g>
													<g>
														<g>
															<g>
																<g>
																	<path style="fill:#2F241C;" d="M228.466,200.437c-14.666-6.578-21.4-24.471-21.4-24.471l24.497,12.247
																		C230.411,192.12,229.255,196.12,228.466,200.437z"/>
																</g>
															</g>
														</g>
													</g>
												</g>
											</g>
										</g>
									</g>
								</g>
							</g>
						</g>
					</g>
				</g>
				<g>
					<g>
						<g>
							<g>
								<g>
									<g>
										<g>
											<g>
												<g>
													<g>
														<path style="fill:#2F241C;" d="M252.058,166.294c0,0,14.363-19.177,5.841-33.609
															c-8.522-14.432-36.975-24.246-50.833-11.604c-13.857,12.642-13.634,35.921,0.224,45.976
															C221.148,177.112,252.058,166.294,252.058,166.294z"/>
													</g>
												</g>
											</g>
										</g>
										<g>
											<g>
												<g>
													<g>
														<g>
															<g>
																<g>
																	<g>
																		<g>
																			<g>
																				<g>
																					<g>
																						<g>
																							<g>
																								<g>
																									<path style="fill:#DE766B;" d="M242.156,165.271c0,0,3.72-6.75,9.258-3.938
																										c5.538,2.812,1.865,22.373-9.176,19.536L242.156,165.271z"/>
																								</g>
																							</g>
																						</g>
																					</g>
																				</g>
																			</g>
																		</g>
																	</g>
																</g>
															</g>
														</g>
													</g>
												</g>
											</g>
										</g>
										<g>
											<g>
												<g>
													<path style="fill:#FD9680;" d="M204.316,171.449c1.561,8.391,20.142,21.333,29.214,19.034
														c5.505-1.396,10.871-5.27,15.318-15.229c0.024-0.052,0.046-0.107,0.071-0.159c0.261-0.589,0.51-1.169,0.746-1.748
														c0.433-1.041,0.825-2.063,1.173-3.047c0.082-0.233,0.163-0.462,0.238-0.689c0.206-0.613,0.393-1.21,0.559-1.788
														c0.207-0.711,0.382-1.389,0.522-2.031c2.262-10.4,5.021-22.045-3.313-30.353c-8.334-8.308-22.883-12.843-33.178-5.061
														c0,0-7.861,6.991-10.392,22.158C202.738,167.704,203.185,165.388,204.316,171.449z"/>
												</g>
											</g>
										</g>
										<g>
											<g>
												<g>
													<path style="fill:#DE766B;" d="M234.241,179.402c0.093-0.006,0.186-0.036,0.269-0.092
														c0.256-0.17,0.325-0.515,0.155-0.77c-0.059-0.089-1.473-2.159-4.547-1.642c-0.303,0.051-0.507,0.337-0.456,0.64
														c0.051,0.302,0.336,0.507,0.64,0.456c2.37-0.4,3.426,1.146,3.437,1.161
														C233.855,179.327,234.048,179.415,234.241,179.402z"/>
												</g>
											</g>
										</g>
										<g>
											<g>
												<g>
													<path style="fill:#2F241C;" d="M238.046,178.032c0.119-0.008,0.236-0.054,0.332-0.14
														c0.229-0.204,0.249-0.555,0.045-0.784c-0.181-0.203-4.511-4.962-10.789-3.378c-0.297,0.075-0.478,0.377-0.403,0.675
														c0.075,0.298,0.378,0.477,0.675,0.403c5.631-1.42,9.648,2.995,9.688,3.04
														C237.713,177.98,237.881,178.043,238.046,178.032z"/>
												</g>
											</g>
										</g>
										<g>
											<g>
												<g>
													<g>
														<g>
															<g>
																<g>
																	<g>
																		<g>
																			<path style="fill:#2F241C;" d="M224.028,130.007c0,0-7.849,15.469-13.187,17.894
																				c-5.338,2.425-7.949-6.269-7.949-6.269S216.972,118.303,224.028,130.007z"/>
																		</g>
																	</g>
																</g>
															</g>
														</g>
													</g>
												</g>
											</g>
										</g>
										<g>
											<path style="fill:#2F241C;" d="M216.975,140.831c0,0,0.287,7.782-3.898,15.629c-6.472,12.132-4.92,16.483-3.642,19.505
												c0,0-4.43-2.392-3.961-9.356c0.469-6.965,5.513-14.727,1.723-19.167C207.196,147.442,210.659,140.179,216.975,140.831z"
												/>
										</g>
										<g>
											<g>
												<g>
													<g>
														<g>
															<g>
																<g>
																	<g>
																		<g>
																			<path style="fill:#2F241C;" d="M244.305,134.137c0,0-11.615,11.862-22.82,6.655
																				c-11.205-5.208-1.599-13.61-1.599-13.61S243.3,122.033,244.305,134.137z"/>
																		</g>
																	</g>
																</g>
															</g>
														</g>
													</g>
												</g>
											</g>
										</g>
										<g>
											<g>
												<g>
													<path style="fill:#2F241C;" d="M241.357,132.472c0,0,2.797,18.498,14.816,17.495
														c12.018-1.004-1.178-21.073-8.984-21.71C239.384,127.619,241.357,132.472,241.357,132.472z"/>
												</g>
											</g>
										</g>
										<g>
											<path style="fill:#2F241C;" d="M254.474,149.878c0,0-0.544,9.359-2.839,17.946c0,0-4.18,12.423-2.728,16.696
												c0,0,2.489-7.721,4.665-14.673C255.932,162.304,257.496,156.87,254.474,149.878z"/>
										</g>
										<g>
											<g>
												<g>
													<g>
														<g>
															<g>
																<path style="fill:#DE766B;" d="M248.918,175.095c0.261-0.589,0.51-1.169,0.746-1.748
																	c0.433-1.041,0.825-2.063,1.173-3.047c0.082-0.233,0.163-0.462,0.238-0.689c-0.172-0.044-0.345-0.087-0.52-0.125
																	c-3.901-0.881-7.358-0.322-7.711,1.248C242.497,172.256,245.192,174.178,248.918,175.095z"/>
															</g>
														</g>
													</g>
												</g>
											</g>
										</g>
										<g>
											<g>
												<g>
													<g>
														<g>
															<g>
																<g>
																	<g>
																		<g>
																			<g>
																				<g>
																					<g>
																						<g>
																							<g>
																								<g>
																									<path style="fill:#DE766B;" d="M213.061,161.744c-0.356,1.572,2.519,3.562,6.422,4.446
																										c3.903,0.884,7.355,0.326,7.711-1.246c0.356-1.572-2.519-3.563-6.422-4.446
																										C216.869,159.613,213.417,160.172,213.061,161.744z"/>
																								</g>
																							</g>
																						</g>
																					</g>
																				</g>
																			</g>
																		</g>
																	</g>
																</g>
															</g>
														</g>
													</g>
												</g>
											</g>
										</g>
										<g>
											<g>
												<g>
													<g>
														<g>
															<g>
																<g>
																	<g>
																		<g>
																			<g>
																				<g>
																					<g>
																						<g>
																							<g>
																								<path style="fill:#2F241C;" d="M232.492,147.143c0,0-4.06-1.668-7.582,1.008
																									c-1.968,1.495-0.718,3.563,1.853,2.443c1.795-0.782,2.796-1.085,4.891-0.962
																									C233.749,149.756,233.507,147.428,232.492,147.143z"/>
																							</g>
																						</g>
																					</g>
																				</g>
																			</g>
																		</g>
																	</g>
																</g>
															</g>
														</g>
													</g>
												</g>
											</g>
										</g>
										<g>
											<g>
												<g>
													<g>
														<g>
															<g>
																<g>
																	<g>
																		<g>
																			<g>
																				<g>
																					<g>
																						<g>
																							<g>
																								<path style="fill:#2F241C;" d="M244.867,149.894c0,0,4.372,0.381,6.273,4.375
																									c1.062,2.232-0.997,3.495-2.768,1.321c-1.236-1.518-1.986-2.248-3.904-3.1
																									C242.551,151.637,243.834,149.68,244.867,149.894z"/>
																							</g>
																						</g>
																					</g>
																				</g>
																			</g>
																		</g>
																	</g>
																</g>
															</g>
														</g>
													</g>
												</g>
											</g>
										</g>
										<g>
											<g>
												<g>
													<g>
														<g>
															<g>
																<g>
																	<g>
																		<g>
																			<g>
																				<g>
																					<g>
																						<g>
																							<g>
																								<g>
																									<path style="fill:#FD9680;" d="M209.434,151.401c0,0-2.241-6.77-8.939-5.345
																										c-6.698,1.425-8.334,23.304,4.232,23.415L209.434,151.401z"/>
																								</g>
																							</g>
																						</g>
																					</g>
																				</g>
																			</g>
																		</g>
																	</g>
																</g>
															</g>
														</g>
													</g>
												</g>
											</g>
										</g>
										<g>
											<g>
												<g>
													<path style="fill:#F2F2F0;" d="M199.014,163.639c-0.322,0.988,0.218,2.05,1.205,2.372
														c0.988,0.322,2.05-0.218,2.372-1.205c0.322-0.988-0.218-2.05-1.206-2.372
														C200.398,162.112,199.336,162.651,199.014,163.639z"/>
												</g>
											</g>
										</g>
										<g>
											<g>
												<g>
													<g>
														<g>
															<g>
																<g>
																	<g>
																		<g>
																			<g>
																				<g>
																					<g>
																						<g>
																							<g>
																								<g>
																									<g>
																										<path style="fill:#2F241C;" d="M204.832,160.833c0.015,0.325-0.235,0.601-0.56,0.617
																											c-0.045,0.002-0.087,0-0.128-0.006c-0.266-0.045-0.476-0.274-0.489-0.554
																											c-0.002-0.037-0.122-2.164-1.195-4.294c-1.404,0.815-2.55,1.601-2.566,1.61
																											c-0.132,0.093-0.287,0.121-0.433,0.095c-0.15-0.026-0.29-0.11-0.387-0.245
																											c-0.182-0.268-0.113-0.634,0.154-0.82c0.052-0.036,1.197-0.822,2.638-1.659
																											c-0.734-1.086-1.764-2.084-3.212-2.686c-0.299-0.126-0.439-0.47-0.314-0.769
																											c0.126-0.303,0.469-0.444,0.769-0.318C204.447,154.033,204.819,160.557,204.832,160.833z"/>
																									</g>
																								</g>
																							</g>
																						</g>
																					</g>
																				</g>
																			</g>
																		</g>
																	</g>
																</g>
															</g>
														</g>
													</g>
												</g>
											</g>
										</g>
										<g>
											<g>
												<g>
													<g>
														<g>
															<g>
																<g>
																	<g>
																		<path style="fill:#2F241C;" d="M232.613,156.477c-0.257-0.113-0.565-0.087-0.805,0.095
																			c-0.018,0.014-1.993,1.478-3.4,0.648c-1.537-0.905-1.863-2.688-1.866-2.705c-0.075-0.432-0.486-0.725-0.919-0.652
																			c-0.433,0.073-0.726,0.48-0.655,0.913c0.017,0.103,0.436,2.528,2.631,3.82c2.331,1.373,5.06-0.665,5.175-0.753
																			c0.351-0.267,0.419-0.768,0.152-1.118C232.841,156.613,232.733,156.53,232.613,156.477z"/>
																	</g>
																</g>
															</g>
														</g>
													</g>
												</g>
											</g>
										</g>
										<g>
											<g>
												<g>
													<g>
														<g>
															<g>
																<g>
																	<g>
																		<path style="fill:#2F241C;" d="M242.281,158.967c-0.012,0.002-0.023,0.005-0.035,0.007
																			c-0.428,0.103-0.692,0.534-0.589,0.962c0.029,0.123,0.749,3.005,3.1,3.367c2.193,0.338,3.813-1.069,3.881-1.129
																			c0.33-0.292,0.361-0.796,0.069-1.126c-0.291-0.329-0.793-0.361-1.123-0.072c-0.023,0.021-1.153,0.97-2.584,0.75
																			c-1.284-0.198-1.786-2.143-1.791-2.163C243.108,159.147,242.698,158.886,242.281,158.967z"/>
																	</g>
																</g>
															</g>
														</g>
													</g>
												</g>
											</g>
										</g>
										<g>
											<g>
												<g>
													<g>
														<g>
															<g>
																<g>
																	<g>
																		<g>
																			<g>
																				<g>
																					<g>
																						<g>
																							<path style="fill:#2F241C;" d="M235.651,168.58c-0.467-0.031-0.961-0.122-1.477-0.295
																								c-0.034-0.011-0.065-0.036-0.084-0.067c-0.471-0.805,0.176-1.44,0.782-1.272
																								c1.558,0.436,2.835-0.118,3.495-0.517c-1.756-3.506-1.677-11.492-1.672-11.852
																								c0.005-0.41,0.342-0.738,0.752-0.733c0.419,0.01,0.738,0.342,0.733,0.751
																								c-0.031,2.483,0.227,9.41,1.777,11.615c0.216,0.307,0.168,0.728-0.111,0.979
																								C239.766,167.262,238.087,168.742,235.651,168.58z"/>
																						</g>
																					</g>
																				</g>
																			</g>
																		</g>
																	</g>
																</g>
															</g>
														</g>
													</g>
												</g>
											</g>
										</g>
									</g>
								</g>
							</g>
						</g>
					</g>
				</g>
			</g>
			<g>
				<g>
					<g>
						<g>
							<g>
								<g>
									<polygon style="fill:#FD9680;" points="318.953,404.523 323.504,423.976 343.248,423.478 341.778,401.34 									"/>
								</g>
							</g>
						</g>
					</g>
				</g>
				<g>
					<g>
						<g>
							<g>
								<g>
									<g>
										<g>
											<path style="fill:#2F241C;" d="M392.759,453.434l-74.679,1.884c-0.581-0.995-0.919-2.419-1.087-4.122
												c-0.626-6.305,1.133-16.437,1.96-22.819c0.101-0.746,0.186-1.441,0.25-2.07c0.111-1.066,0.173-1.952,0.157-2.601
												c-0.131-5.187,3.057-4.374,3.057-4.374c7.744,7.219,17.447-4.149,22.535-0.63c0,0,2.19,1.488,8.255,6.673
												c6.06,5.185,16.235,8.451,24.909,11.826c11.199,4.352,14.458,8.9,15.152,12.072
												C393.816,451.784,392.759,453.434,392.759,453.434z"/>
										</g>
									</g>
								</g>
							</g>
						</g>
					</g>
					<g>
						<g>
							<g>
								<g>
									<g>
										<g>
											<path style="fill:#64605A;" d="M392.759,453.434l-74.679,1.884c-0.581-0.995-0.919-2.419-1.087-4.122l76.275-1.924
												C393.816,451.784,392.759,453.434,392.759,453.434z"/>
										</g>
									</g>
								</g>
							</g>
						</g>
					</g>
					<g>
						<g>
							<g>
								<g>
									<g>
										<g>
											<g>
												<path style="fill:#64605A;" d="M325.7,455.125l-2.218,0.056c2.15-2.585,4.124-6.518,3.712-12.059
													c-0.546-7.37-5.099-12.232-8.241-14.746c0.101-0.746,0.186-1.441,0.25-2.07c3.38,2.45,9.108,7.857,9.766,16.683
													C329.361,448.281,327.723,452.277,325.7,455.125z"/>
											</g>
										</g>
									</g>
								</g>
							</g>
						</g>
					</g>
					<g>
						<g>
							<g>
								<g>
									<g>
										<g>
											<path style="fill:#F2F2F0;" d="M352.052,429.811c-0.552,0.014-1.064-0.348-1.217-0.904
												c-0.181-0.655,0.205-1.333,0.86-1.513l4.636-1.276c0.655-0.182,1.333,0.204,1.514,0.86
												c0.18,0.655-0.205,1.333-0.86,1.513l-4.636,1.276C352.25,429.793,352.15,429.808,352.052,429.811z"/>
										</g>
									</g>
								</g>
							</g>
						</g>
					</g>
					<g>
						<g>
							<g>
								<g>
									<g>
										<g>
											<path style="fill:#F2F2F0;" d="M347.318,426.044c-0.552,0.014-1.064-0.348-1.217-0.904
												c-0.181-0.655,0.204-1.333,0.86-1.513l4.636-1.276c0.655-0.182,1.333,0.204,1.514,0.86
												c0.18,0.655-0.205,1.333-0.861,1.513l-4.636,1.276C347.516,426.027,347.416,426.041,347.318,426.044z"/>
										</g>
									</g>
								</g>
							</g>
						</g>
					</g>
					<g>
						<g>
							<g>
								<g>
									<g>
										<g>
											<path style="fill:#F2F2F0;" d="M356.785,432.405c-0.552,0.014-1.064-0.348-1.217-0.904
												c-0.181-0.655,0.205-1.333,0.86-1.513l4.636-1.276c0.655-0.182,1.333,0.205,1.513,0.86
												c0.181,0.655-0.205,1.333-0.86,1.513l-4.636,1.276C356.983,432.388,356.884,432.402,356.785,432.405z"/>
										</g>
									</g>
								</g>
							</g>
						</g>
					</g>
					<g>
						<g>
							<g>
								<g>
									<g>
										<g>
											<path style="fill:#F2F2F0;" d="M361.516,434.894c-0.552,0.014-1.064-0.348-1.217-0.904
												c-0.181-0.655,0.204-1.333,0.86-1.514l4.636-1.276c0.656-0.181,1.333,0.205,1.514,0.86
												c0.181,0.655-0.205,1.333-0.86,1.513l-4.636,1.276C361.714,434.877,361.614,434.891,361.516,434.894z"/>
										</g>
									</g>
								</g>
							</g>
						</g>
					</g>
					<g>
						<g>
							<g>
								<g>
									<g>
										<g>
											<path style="fill:#F2F2F0;" d="M366.664,437.176c-0.552,0.014-1.064-0.348-1.217-0.904
												c-0.18-0.655,0.205-1.333,0.861-1.513l4.636-1.276c0.655-0.181,1.333,0.204,1.513,0.86
												c0.18,0.655-0.205,1.333-0.861,1.513l-4.636,1.276C366.861,437.159,366.762,437.174,366.664,437.176z"/>
										</g>
									</g>
								</g>
							</g>
						</g>
					</g>
					<g>
						<g>
							<g>
								<g>
									<g>
										<g>
											<path style="fill:#F2F2F0;" d="M372.232,439.093c-0.552,0.014-1.064-0.348-1.217-0.905
												c-0.18-0.655,0.205-1.333,0.86-1.513l4.636-1.276c0.655-0.182,1.333,0.204,1.513,0.861
												c0.181,0.655-0.205,1.333-0.861,1.513l-4.636,1.276C372.429,439.076,372.33,439.09,372.232,439.093z"/>
										</g>
									</g>
								</g>
							</g>
						</g>
					</g>
				</g>
			</g>
			<g>
				<g>
					<g>
						<path style="fill:#00787C;" d="M178.626,399.801c19.046-49.121,56.275-121.143,87.677-139.115
							c28.74-16.448,49.055,3.095,53.961,21.319c4.906,18.224,25.793,125.435,25.793,125.435l-31.309,3.264
							c-10.557-37.658-34.162-64.483-23.918-81.133c0,0-15.557,76.687-51.35,87.726
							C203.687,428.335,178.626,399.801,178.626,399.801z"/>
					</g>
				</g>
				<g>
					<g>
						<path style="fill:#004B56;" d="M183.579,393.816c-0.476,0-0.878-0.367-0.914-0.849c-0.038-0.505,0.341-0.945,0.847-0.983
							c7.351-0.548,12.556-3.208,15.469-7.908c6.708-10.82-0.591-29.071-0.665-29.254c-0.191-0.469,0.035-1.005,0.504-1.196
							c0.469-0.191,1.005,0.035,1.196,0.504c0.079,0.195,1.957,4.849,2.989,10.982c1.382,8.208,0.53,15.1-2.464,19.93
							c-3.24,5.226-8.923,8.177-16.893,8.771C183.625,393.815,183.602,393.816,183.579,393.816z"/>
					</g>
				</g>
				<g>
					<g>
						<g>
							<path style="fill:#004B56;" d="M223.772,414.904c-9.12,0-18.166-3.285-24.91-6.553c-9.954-4.825-17.174-10.657-17.245-10.716
								c-0.328-0.266-0.377-0.748-0.111-1.076c0.266-0.327,0.748-0.378,1.076-0.111c0.07,0.057,7.175,5.794,16.976,10.54
								c8.98,4.348,22.131,8.734,33.787,4.943c12.669-4.122,27.042-23.197,41.566-55.163c11.026-24.267,18.305-47.591,18.378-47.824
								c0.114-0.368,0.483-0.594,0.865-0.526c0.38,0.068,0.649,0.408,0.629,0.793c-0.015,0.287-1.404,28.915,6.994,49.309
								c8.474,20.58,16.149,42.841,16.225,43.063c0.137,0.399-0.075,0.834-0.474,0.972c-0.401,0.137-0.834-0.075-0.972-0.474
								c-0.077-0.222-7.737-22.442-16.193-42.979c-6.37-15.47-7.198-35.54-7.203-44.834c-2.727,8.143-8.791,25.379-16.851,43.118
								c-6.506,14.32-13.022,26.169-19.369,35.216c-7.997,11.4-15.776,18.391-23.122,20.782
								C230.535,414.453,227.148,414.904,223.772,414.904z"/>
						</g>
					</g>
					<g>
						<g>
							<path style="fill:#004B56;" d="M312.994,403.244c-0.391,0-0.725-0.298-0.76-0.695c-0.038-0.421,0.271-0.793,0.692-0.831
								l30.789-2.798c0.421-0.04,0.793,0.271,0.831,0.692c0.038,0.421-0.272,0.793-0.692,0.831l-30.789,2.798
								C313.041,403.243,313.018,403.244,312.994,403.244z"/>
						</g>
					</g>
				</g>
			</g>
			<g>
				<g>
					<g>
						<path style="fill:#FD9680;" d="M293.947,266.765c-2.945-4.536-9.01-5.828-13.546-2.884l-0.124,0.08L270,270.632l-5.151,3.351
							l-5.163,3.32c-6.873,4.419-13.752,8.769-20.631,12.934c-0.921,0.562-1.841,1.118-2.764,1.667
							c-0.898,0.537-1.797,1.068-2.697,1.596c-1.315,0.772-2.628,1.533-3.939,2.286c-0.17,0.096-0.338,0.195-0.506,0.292
							c-0.134,0.076-0.266,0.153-0.4,0.229c-1.714,0.977-3.429,1.927-5.138,2.85c-1.705,0.929-3.406,1.829-5.094,2.68
							c-1.69,0.851-3.368,1.661-5.01,2.416c-1.323,0.608-2.63,1.168-3.888,1.665c-0.09-0.269-0.178-0.537-0.266-0.807
							c-0.577-1.776-1.149-3.611-1.714-5.47c-1.124-3.723-2.19-7.561-3.249-11.422c-0.529-1.932-1.042-3.878-1.554-5.828
							c-0.48-1.81-0.954-3.624-1.422-5.447c-0.036-0.141-0.073-0.283-0.109-0.426c-0.036-0.138-0.071-0.277-0.107-0.417
							c-0.428-1.661-0.852-3.326-1.273-4.993c-0.187-0.734-0.371-1.468-0.554-2.204c-1.346-5.35-2.67-10.725-4.004-16.103
							l-2.917-11.923l-2.917-11.862l-0.017-0.073c-2.242-9.043-11.212-14.83-20.457-13.018
							c-9.532,1.869-15.746,11.113-13.878,20.648c0.214,1.086,0.413,2.097,0.631,3.137l0.642,3.091
							c0.426,2.06,0.889,4.107,1.338,6.156c0.895,4.102,1.862,8.186,2.84,12.273c1.586,6.686,3.284,13.355,5.09,20.029
							c0.401,1.487,0.807,2.972,1.219,4.459c0.568,2.041,1.145,4.083,1.734,6.128c0.593,2.043,1.2,4.088,1.822,6.137
							c0.466,1.548,0.944,3.095,1.434,4.645c0.81,2.563,1.655,5.136,2.542,7.73c0.713,2.085,1.458,4.182,2.263,6.311
							c0.807,2.133,1.661,4.297,2.641,6.566c0.503,1.147,1.017,2.299,1.63,3.549c0.289,0.602,0.642,1.273,0.977,1.917l0.573,1.042
							l0.161,0.289c0.136,0.237,0.277,0.474,0.422,0.707c0.285,0.468,0.579,0.923,0.927,1.395c1.326,1.854,3.079,3.622,5.002,4.987
							c1.921,1.369,3.937,2.322,5.776,2.938c1.844,0.619,3.542,0.94,5.033,1.101c1.477,0.155,2.819,0.178,4.012,0.128
							c1.179-0.052,2.28-0.164,3.255-0.317c1.005-0.149,1.894-0.333,2.766-0.531c1.705-0.401,3.209-0.864,4.608-1.351
							c2.787-0.982,5.191-2.043,7.449-3.163c2.25-1.118,4.356-2.271,6.382-3.45c2.028-1.172,3.97-2.385,5.864-3.616
							c0.906-0.587,1.799-1.179,2.685-1.774c0.967-0.648,1.923-1.302,2.871-1.961c1.81-1.269,3.586-2.552,5.34-3.846
							c1.753-1.292,3.481-2.603,5.182-3.93c1.705-1.325,3.393-2.655,5.061-4.006c0.64-0.516,1.277-1.036,1.911-1.556
							c5.986-4.905,11.764-9.962,17.403-15.14c1.563-1.428,3.1-2.884,4.635-4.339c1.533-1.458,3.064-2.915,4.58-4.389
							c1.506-1.485,3.007-2.976,4.503-4.476c0.747-0.751,1.483-1.516,2.223-2.278l1.109-1.149l1.124-1.187
							C295.88,275.622,296.459,270.637,293.947,266.765z M203.18,307.831c-0.304,0.021-0.451-0.036-0.141-0.082
							c0.149-0.021,0.428-0.044,0.835-0.013C203.599,307.787,203.362,307.819,203.18,307.831z"/>
					</g>
				</g>
				<g>
					<g>
						<g>
							<g>
								<g>
									<g>
										<g>
											<g>
												<g>
													<g>
														<g>
															<g>
																<g>
																	<g>
																		<path style="fill:#D1625C;" d="M181.444,291.94c0,0,1.613,0.044,3.475-0.906
																			c1.862-0.952,11.166-4.658,10.423-1.424c-0.742,3.234-10.985,8.477-14.465,10.442
																			c-2.127,1.204-6.019,2.282-8.945,2.575c-0.491-1.55-0.969-3.098-1.434-4.645
																			c-0.623-2.049-1.229-4.094-1.822-6.137c-0.589-2.045-1.166-4.087-1.734-6.128
																			c-0.411-1.487-0.818-2.972-1.219-4.459c0.946-1.015,1.758-1.892,2.297-2.523
																			c2.082-2.437,17.04-16.371,17.676-14.136c0.635,2.236-5.872,10.853-5.872,10.853s12.626-10.799,14.308-8.821
																			c1.527,1.795-9.28,9.822-10.111,10.438c0.828-0.558,11.319-7.588,15.352-8.167
																			c0.182,0.736,0.367,1.47,0.554,2.204c-3.142,3.362-12.667,10.249-13.022,10.507
																			c2.645-1.361,12.431-6.327,14.295-5.514c0.036,0.141,0.071,0.279,0.107,0.417
																			c0.036,0.143,0.073,0.285,0.109,0.426C199.967,280.087,181.444,291.94,181.444,291.94z"/>
																	</g>
																</g>
															</g>
														</g>
													</g>
												</g>
											</g>
										</g>
									</g>
								</g>
							</g>
						</g>
					</g>
				</g>
				<g>
					<g>
						<g>
							<g>
								<g>
									<g>
										<g>
											<g>
												<g>
													<g>
														<g>
															<g>
																<g>
																	<g>
																		<path style="fill:#D1625C;" d="M257.264,311.789c-0.633,0.52-1.271,1.04-1.911,1.556
																			c-1.667,1.351-3.356,2.68-5.061,4.006c-1.701,1.328-3.429,2.638-5.182,3.93c-1.753,1.294-3.53,2.577-5.34,3.846
																			c-0.948,0.659-1.904,1.313-2.871,1.961c-0.164-0.218-0.313-0.432-0.445-0.64
																			c-2.16-3.36-8.777-12.774-7.926-15.981c0.852-3.209,7.355,4.409,8.557,6.12c1.204,1.709,2.653,2.422,2.653,2.422
																			s-11.579-20.398-10.62-22.866c0.008-0.023,0.019-0.044,0.031-0.065c0.105-0.22,0.279-0.31,0.506-0.292
																			c2.036,0.166,8.376,9.121,10.073,11.549c-0.105-0.21-4.379-8.838-6.134-13.836c0.9-0.529,1.799-1.059,2.697-1.596
																			c3.381,3.966,7.831,12.24,8.12,12.774c-0.321-0.659-6.309-13.087-4.094-13.974
																			c2.41-0.965,8.542,14.477,8.542,14.477s-1.737-10.658-0.132-12.34C250.137,291.366,255.5,306.063,257.264,311.789
																			z"/>
																	</g>
																</g>
															</g>
														</g>
													</g>
												</g>
											</g>
										</g>
									</g>
								</g>
							</g>
						</g>
					</g>
				</g>
				<g>
					<g>
						<g>
							<path style="fill:#D1625C;" d="M199.955,314.283c-0.166,0-0.333-0.054-0.473-0.164c-0.332-0.262-0.388-0.742-0.126-1.074
								c4.681-5.928,9.091-7.355,9.277-7.413c0.403-0.125,0.832,0.099,0.958,0.502c0.126,0.403-0.098,0.831-0.501,0.957
								c-0.065,0.021-4.184,1.393-8.534,6.901C200.404,314.183,200.181,314.283,199.955,314.283z"/>
						</g>
					</g>
					<g>
						<g>
							<path style="fill:#D1625C;" d="M198.436,309.108c-0.344,0-0.656-0.234-0.742-0.583c-0.101-0.41,0.15-0.824,0.56-0.925
								c0.225-0.055,5.539-1.342,8.868-1.245c0.422,0.013,0.754,0.366,0.74,0.788c-0.013,0.422-0.368,0.756-0.788,0.74
								c-3.12-0.098-8.403,1.188-8.456,1.201C198.557,309.101,198.496,309.108,198.436,309.108z"/>
						</g>
					</g>
				</g>
				<g>
					<g>
						<g>
							<path style="fill:#FD9680;" d="M278.154,265.934c5.199-9.595,12.496-17.13,21.04-16.47c1.045,0.081,3.775-0.627,5.545,0.471
								c1.225,0.76,1.379,3.117,2.707,4.187c1.108,0.893,3.477,0.608,4.531,1.624c1.271,1.227,1.202,3.773,2.207,5.045
								c0.734,0.928,2.554,1.206,3.053,2.091c0.97,1.721,0.237,3.949-0.123,5.186c-1.623,5.583-29.043,15.814-29.043,15.814
								L278.154,265.934z"/>
						</g>
					</g>
					<g>
						<path style="fill:#FF6449;" d="M271.544,269.63c0,0,12.291,12.359,13.074,17.563c0,0,3.264,0.115,4.474-3.7
							c0,0-3.321-9.455-13.165-16.896C275.928,266.598,272.13,266.47,271.544,269.63z"/>
					</g>
					<g>
						<g>
							<path style="fill:#FD9680;" d="M279.1,264.322c0,0,2.94-10.31,5.081-12.043c2.141-1.733,9.838-1.22,9.838-1.22L279.1,264.322
								z"/>
						</g>
					</g>
				</g>
				<g>
					<g>
						<path style="fill:#2F241C;" d="M176.022,198.043c-5.58-0.19-10.919,2.285-14.565,6.513
							c-4.413,5.117-10.069,14.556-10.647,29.689c-0.96,25.146,2.503,35.385,2.503,35.385l48.856-6.514
							C202.169,263.115,204.663,199.019,176.022,198.043z"/>
					</g>
				</g>
			</g>
		</g>
	</g>
</g>
</svg>
